<?xml version="1.0" encoding="UTF-8"?>
<svg width="388px" height="70px" viewBox="0 0 388 70" version="1.1" xmlns="http://www.w3.org/2000/svg" xmlns:xlink="http://www.w3.org/1999/xlink">
    <!-- Generator: sketchtool 51.3 (57544) - http://www.bohemiancoding.com/sketch -->
    <title>79165B59-5891-40C7-A15E-F72DE8575828</title>
    <desc>Created with sketchtool.</desc>
    <defs></defs>
    <g id="Symbols" stroke="none" stroke-width="1" fill="none" fill-rule="evenodd">
        <g id="UI-Kit" transform="translate(-250.000000, -2399.000000)" fill="#272C6C" fill-rule="nonzero">
            <g id="patterns" transform="translate(250.000000, 2241.000000)">
                <path d="M1.50405614,228.001502 C0.673388869,228.001502 0,227.330938 0,226.503755 C0,225.676572 0.673388869,225.006008 1.50405614,225.006008 C2.3347234,225.006008 3.00811227,225.676572 3.00811227,226.503755 C3.00811227,227.330938 2.3347234,228.001502 1.50405614,228.001502 Z M18.3261209,228.001502 C17.4954536,228.001502 16.8220648,227.330938 16.8220648,226.503755 C16.8220648,225.676572 17.4954536,225.006008 18.3261209,225.006008 C19.1567882,225.006008 19.830177,225.676572 19.830177,226.503755 C19.830177,227.330938 19.1567882,228.001502 18.3261209,228.001502 Z M35.1481856,228.001502 C34.3175184,228.001502 33.6441295,227.330938 33.6441295,226.503755 C33.6441295,225.676572 34.3175184,225.006008 35.1481856,225.006008 C35.9788529,225.006008 36.6522418,225.676572 36.6522418,226.503755 C36.6522418,227.330938 35.9788529,228.001502 35.1481856,228.001502 Z M51.9702504,228.001502 C51.1395831,228.001502 50.4661943,227.330938 50.4661943,226.503755 C50.4661943,225.676572 51.1395831,225.006008 51.9702504,225.006008 C52.8009177,225.006008 53.4743065,225.676572 53.4743065,226.503755 C53.4743065,227.330938 52.8009177,228.001502 51.9702504,228.001502 Z M68.7923151,228.001502 C67.9616479,228.001502 67.288259,227.330938 67.288259,226.503755 C67.288259,225.676572 67.9616479,225.006008 68.7923151,225.006008 C69.6229824,225.006008 70.2963713,225.676572 70.2963713,226.503755 C70.2963713,227.330938 69.6229824,228.001502 68.7923151,228.001502 Z M85.6143799,228.001502 C84.7837126,228.001502 84.1103238,227.330938 84.1103238,226.503755 C84.1103238,225.676572 84.7837126,225.006008 85.6143799,225.006008 C86.4450472,225.006008 87.118436,225.676572 87.118436,226.503755 C87.118436,227.330938 86.4450472,228.001502 85.6143799,228.001502 Z M102.436445,228.001502 C101.605777,228.001502 100.932389,227.330938 100.932389,226.503755 C100.932389,225.676572 101.605777,225.006008 102.436445,225.006008 C103.267112,225.006008 103.940501,225.676572 103.940501,226.503755 C103.940501,227.330938 103.267112,228.001502 102.436445,228.001502 Z M119.258509,228.001502 C118.427842,228.001502 117.754453,227.330938 117.754453,226.503755 C117.754453,225.676572 118.427842,225.006008 119.258509,225.006008 C120.089177,225.006008 120.762566,225.676572 120.762566,226.503755 C120.762566,227.330938 120.089177,228.001502 119.258509,228.001502 Z M136.080574,228.001502 C135.249907,228.001502 134.576518,227.330938 134.576518,226.503755 C134.576518,225.676572 135.249907,225.006008 136.080574,225.006008 C136.911241,225.006008 137.58463,225.676572 137.58463,226.503755 C137.58463,227.330938 136.911241,228.001502 136.080574,228.001502 Z M152.902639,228.001502 C152.071972,228.001502 151.398583,227.330938 151.398583,226.503755 C151.398583,225.676572 152.071972,225.006008 152.902639,225.006008 C153.733306,225.006008 154.406695,225.676572 154.406695,226.503755 C154.406695,227.330938 153.733306,228.001502 152.902639,228.001502 Z M169.724704,228.001502 C168.894036,228.001502 168.220648,227.330938 168.220648,226.503755 C168.220648,225.676572 168.894036,225.006008 169.724704,225.006008 C170.555371,225.006008 171.22876,225.676572 171.22876,226.503755 C171.22876,227.330938 170.555371,228.001502 169.724704,228.001502 Z M186.546768,228.001502 C185.716101,228.001502 185.042712,227.330938 185.042712,226.503755 C185.042712,225.676572 185.716101,225.006008 186.546768,225.006008 C187.377436,225.006008 188.050825,225.676572 188.050825,226.503755 C188.050825,227.330938 187.377436,228.001502 186.546768,228.001502 Z M1.50405614,211.25 C0.673388869,211.25 0,210.579436 0,209.752253 C0,208.92507 0.673388869,208.254506 1.50405614,208.254506 C2.3347234,208.254506 3.00811227,208.92507 3.00811227,209.752253 C3.00811227,210.579436 2.3347234,211.25 1.50405614,211.25 Z M18.3261209,211.25 C17.4954536,211.25 16.8220648,210.579436 16.8220648,209.752253 C16.8220648,208.92507 17.4954536,208.254506 18.3261209,208.254506 C19.1567882,208.254506 19.830177,208.92507 19.830177,209.752253 C19.830177,210.579436 19.1567882,211.25 18.3261209,211.25 Z M35.1481856,211.25 C34.3175184,211.25 33.6441295,210.579436 33.6441295,209.752253 C33.6441295,208.92507 34.3175184,208.254506 35.1481856,208.254506 C35.9788529,208.254506 36.6522418,208.92507 36.6522418,209.752253 C36.6522418,210.579436 35.9788529,211.25 35.1481856,211.25 Z M51.9702504,211.25 C51.1395831,211.25 50.4661943,210.579436 50.4661943,209.752253 C50.4661943,208.92507 51.1395831,208.254506 51.9702504,208.254506 C52.8009177,208.254506 53.4743065,208.92507 53.4743065,209.752253 C53.4743065,210.579436 52.8009177,211.25 51.9702504,211.25 Z M68.7923151,211.25 C67.9616479,211.25 67.288259,210.579436 67.288259,209.752253 C67.288259,208.92507 67.9616479,208.254506 68.7923151,208.254506 C69.6229824,208.254506 70.2963713,208.92507 70.2963713,209.752253 C70.2963713,210.579436 69.6229824,211.25 68.7923151,211.25 Z M85.6143799,211.25 C84.7837126,211.25 84.1103238,210.579436 84.1103238,209.752253 C84.1103238,208.92507 84.7837126,208.254506 85.6143799,208.254506 C86.4450472,208.254506 87.118436,208.92507 87.118436,209.752253 C87.118436,210.579436 86.4450472,211.25 85.6143799,211.25 Z M102.436445,211.25 C101.605777,211.25 100.932389,210.579436 100.932389,209.752253 C100.932389,208.92507 101.605777,208.254506 102.436445,208.254506 C103.267112,208.254506 103.940501,208.92507 103.940501,209.752253 C103.940501,210.579436 103.267112,211.25 102.436445,211.25 Z M119.258509,211.25 C118.427842,211.25 117.754453,210.579436 117.754453,209.752253 C117.754453,208.92507 118.427842,208.254506 119.258509,208.254506 C120.089177,208.254506 120.762566,208.92507 120.762566,209.752253 C120.762566,210.579436 120.089177,211.25 119.258509,211.25 Z M136.080574,211.25 C135.249907,211.25 134.576518,210.579436 134.576518,209.752253 C134.576518,208.92507 135.249907,208.254506 136.080574,208.254506 C136.911241,208.254506 137.58463,208.92507 137.58463,209.752253 C137.58463,210.579436 136.911241,211.25 136.080574,211.25 Z M152.902639,211.25 C152.071972,211.25 151.398583,210.579436 151.398583,209.752253 C151.398583,208.92507 152.071972,208.254506 152.902639,208.254506 C153.733306,208.254506 154.406695,208.92507 154.406695,209.752253 C154.406695,210.579436 153.733306,211.25 152.902639,211.25 Z M169.724704,211.25 C168.894036,211.25 168.220648,210.579436 168.220648,209.752253 C168.220648,208.92507 168.894036,208.254506 169.724704,208.254506 C170.555371,208.254506 171.22876,208.92507 171.22876,209.752253 C171.22876,210.579436 170.555371,211.25 169.724704,211.25 Z M186.546768,211.25 C185.716101,211.25 185.042712,210.579436 185.042712,209.752253 C185.042712,208.92507 185.716101,208.254506 186.546768,208.254506 C187.377436,208.254506 188.050825,208.92507 188.050825,209.752253 C188.050825,210.579436 187.377436,211.25 186.546768,211.25 Z M1.50405614,194.498498 C0.673388869,194.498498 0,193.827934 0,193.000751 C0,192.173568 0.673388869,191.503004 1.50405614,191.503004 C2.3347234,191.503004 3.00811227,192.173568 3.00811227,193.000751 C3.00811227,193.827934 2.3347234,194.498498 1.50405614,194.498498 Z M18.3261209,194.498498 C17.4954536,194.498498 16.8220648,193.827934 16.8220648,193.000751 C16.8220648,192.173568 17.4954536,191.503004 18.3261209,191.503004 C19.1567882,191.503004 19.830177,192.173568 19.830177,193.000751 C19.830177,193.827934 19.1567882,194.498498 18.3261209,194.498498 Z M35.1481856,194.498498 C34.3175184,194.498498 33.6441295,193.827934 33.6441295,193.000751 C33.6441295,192.173568 34.3175184,191.503004 35.1481856,191.503004 C35.9788529,191.503004 36.6522418,192.173568 36.6522418,193.000751 C36.6522418,193.827934 35.9788529,194.498498 35.1481856,194.498498 Z M51.9702504,194.498498 C51.1395831,194.498498 50.4661943,193.827934 50.4661943,193.000751 C50.4661943,192.173568 51.1395831,191.503004 51.9702504,191.503004 C52.8009177,191.503004 53.4743065,192.173568 53.4743065,193.000751 C53.4743065,193.827934 52.8009177,194.498498 51.9702504,194.498498 Z M68.7923151,194.498498 C67.9616479,194.498498 67.288259,193.827934 67.288259,193.000751 C67.288259,192.173568 67.9616479,191.503004 68.7923151,191.503004 C69.6229824,191.503004 70.2963713,192.173568 70.2963713,193.000751 C70.2963713,193.827934 69.6229824,194.498498 68.7923151,194.498498 Z M85.6143799,194.498498 C84.7837126,194.498498 84.1103238,193.827934 84.1103238,193.000751 C84.1103238,192.173568 84.7837126,191.503004 85.6143799,191.503004 C86.4450472,191.503004 87.118436,192.173568 87.118436,193.000751 C87.118436,193.827934 86.4450472,194.498498 85.6143799,194.498498 Z M102.436445,194.498498 C101.605777,194.498498 100.932389,193.827934 100.932389,193.000751 C100.932389,192.173568 101.605777,191.503004 102.436445,191.503004 C103.267112,191.503004 103.940501,192.173568 103.940501,193.000751 C103.940501,193.827934 103.267112,194.498498 102.436445,194.498498 Z M119.258509,194.498498 C118.427842,194.498498 117.754453,193.827934 117.754453,193.000751 C117.754453,192.173568 118.427842,191.503004 119.258509,191.503004 C120.089177,191.503004 120.762566,192.173568 120.762566,193.000751 C120.762566,193.827934 120.089177,194.498498 119.258509,194.498498 Z M136.080574,194.498498 C135.249907,194.498498 134.576518,193.827934 134.576518,193.000751 C134.576518,192.173568 135.249907,191.503004 136.080574,191.503004 C136.911241,191.503004 137.58463,192.173568 137.58463,193.000751 C137.58463,193.827934 136.911241,194.498498 136.080574,194.498498 Z M152.902639,194.498498 C152.071972,194.498498 151.398583,193.827934 151.398583,193.000751 C151.398583,192.173568 152.071972,191.503004 152.902639,191.503004 C153.733306,191.503004 154.406695,192.173568 154.406695,193.000751 C154.406695,193.827934 153.733306,194.498498 152.902639,194.498498 Z M169.724704,194.498498 C168.894036,194.498498 168.220648,193.827934 168.220648,193.000751 C168.220648,192.173568 168.894036,191.503004 169.724704,191.503004 C170.555371,191.503004 171.22876,192.173568 171.22876,193.000751 C171.22876,193.827934 170.555371,194.498498 169.724704,194.498498 Z M186.546768,194.498498 C185.716101,194.498498 185.042712,193.827934 185.042712,193.000751 C185.042712,192.173568 185.716101,191.503004 186.546768,191.503004 C187.377436,191.503004 188.050825,192.173568 188.050825,193.000751 C188.050825,193.827934 187.377436,194.498498 186.546768,194.498498 Z M1.50405614,177.746996 C0.673388869,177.746996 0,177.076432 0,176.249249 C0,175.422066 0.673388869,174.751502 1.50405614,174.751502 C2.3347234,174.751502 3.00811227,175.422066 3.00811227,176.249249 C3.00811227,177.076432 2.3347234,177.746996 1.50405614,177.746996 Z M18.3261209,177.746996 C17.4954536,177.746996 16.8220648,177.076432 16.8220648,176.249249 C16.8220648,175.422066 17.4954536,174.751502 18.3261209,174.751502 C19.1567882,174.751502 19.830177,175.422066 19.830177,176.249249 C19.830177,177.076432 19.1567882,177.746996 18.3261209,177.746996 Z M35.1481856,177.746996 C34.3175184,177.746996 33.6441295,177.076432 33.6441295,176.249249 C33.6441295,175.422066 34.3175184,174.751502 35.1481856,174.751502 C35.9788529,174.751502 36.6522418,175.422066 36.6522418,176.249249 C36.6522418,177.076432 35.9788529,177.746996 35.1481856,177.746996 Z M51.9702504,177.746996 C51.1395831,177.746996 50.4661943,177.076432 50.4661943,176.249249 C50.4661943,175.422066 51.1395831,174.751502 51.9702504,174.751502 C52.8009177,174.751502 53.4743065,175.422066 53.4743065,176.249249 C53.4743065,177.076432 52.8009177,177.746996 51.9702504,177.746996 Z M68.7923151,177.746996 C67.9616479,177.746996 67.288259,177.076432 67.288259,176.249249 C67.288259,175.422066 67.9616479,174.751502 68.7923151,174.751502 C69.6229824,174.751502 70.2963713,175.422066 70.2963713,176.249249 C70.2963713,177.076432 69.6229824,177.746996 68.7923151,177.746996 Z M85.6143799,177.746996 C84.7837126,177.746996 84.1103238,177.076432 84.1103238,176.249249 C84.1103238,175.422066 84.7837126,174.751502 85.6143799,174.751502 C86.4450472,174.751502 87.118436,175.422066 87.118436,176.249249 C87.118436,177.076432 86.4450472,177.746996 85.6143799,177.746996 Z M102.436445,177.746996 C101.605777,177.746996 100.932389,177.076432 100.932389,176.249249 C100.932389,175.422066 101.605777,174.751502 102.436445,174.751502 C103.267112,174.751502 103.940501,175.422066 103.940501,176.249249 C103.940501,177.076432 103.267112,177.746996 102.436445,177.746996 Z M119.258509,177.746996 C118.427842,177.746996 117.754453,177.076432 117.754453,176.249249 C117.754453,175.422066 118.427842,174.751502 119.258509,174.751502 C120.089177,174.751502 120.762566,175.422066 120.762566,176.249249 C120.762566,177.076432 120.089177,177.746996 119.258509,177.746996 Z M136.080574,177.746996 C135.249907,177.746996 134.576518,177.076432 134.576518,176.249249 C134.576518,175.422066 135.249907,174.751502 136.080574,174.751502 C136.911241,174.751502 137.58463,175.422066 137.58463,176.249249 C137.58463,177.076432 136.911241,177.746996 136.080574,177.746996 Z M152.902639,177.746996 C152.071972,177.746996 151.398583,177.076432 151.398583,176.249249 C151.398583,175.422066 152.071972,174.751502 152.902639,174.751502 C153.733306,174.751502 154.406695,175.422066 154.406695,176.249249 C154.406695,177.076432 153.733306,177.746996 152.902639,177.746996 Z M169.724704,177.746996 C168.894036,177.746996 168.220648,177.076432 168.220648,176.249249 C168.220648,175.422066 168.894036,174.751502 169.724704,174.751502 C170.555371,174.751502 171.22876,175.422066 171.22876,176.249249 C171.22876,177.076432 170.555371,177.746996 169.724704,177.746996 Z M186.546768,177.746996 C185.716101,177.746996 185.042712,177.076432 185.042712,176.249249 C185.042712,175.422066 185.716101,174.751502 186.546768,174.751502 C187.377436,174.751502 188.050825,175.422066 188.050825,176.249249 C188.050825,177.076432 187.377436,177.746996 186.546768,177.746996 Z M1.50405614,160.995494 C0.673388869,160.995494 0,160.32493 0,159.497747 C0,158.670564 0.673388869,158 1.50405614,158 C2.3347234,158 3.00811227,158.670564 3.00811227,159.497747 C3.00811227,160.32493 2.3347234,160.995494 1.50405614,160.995494 Z M18.3261209,160.995494 C17.4954536,160.995494 16.8220648,160.32493 16.8220648,159.497747 C16.8220648,158.670564 17.4954536,158 18.3261209,158 C19.1567882,158 19.830177,158.670564 19.830177,159.497747 C19.830177,160.32493 19.1567882,160.995494 18.3261209,160.995494 Z M35.1481856,160.995494 C34.3175184,160.995494 33.6441295,160.32493 33.6441295,159.497747 C33.6441295,158.670564 34.3175184,158 35.1481856,158 C35.9788529,158 36.6522418,158.670564 36.6522418,159.497747 C36.6522418,160.32493 35.9788529,160.995494 35.1481856,160.995494 Z M51.9702504,160.995494 C51.1395831,160.995494 50.4661943,160.32493 50.4661943,159.497747 C50.4661943,158.670564 51.1395831,158 51.9702504,158 C52.8009177,158 53.4743065,158.670564 53.4743065,159.497747 C53.4743065,160.32493 52.8009177,160.995494 51.9702504,160.995494 Z M68.7923151,160.995494 C67.9616479,160.995494 67.288259,160.32493 67.288259,159.497747 C67.288259,158.670564 67.9616479,158 68.7923151,158 C69.6229824,158 70.2963713,158.670564 70.2963713,159.497747 C70.2963713,160.32493 69.6229824,160.995494 68.7923151,160.995494 Z M85.6143799,160.995494 C84.7837126,160.995494 84.1103238,160.32493 84.1103238,159.497747 C84.1103238,158.670564 84.7837126,158 85.6143799,158 C86.4450472,158 87.118436,158.670564 87.118436,159.497747 C87.118436,160.32493 86.4450472,160.995494 85.6143799,160.995494 Z M102.436445,160.995494 C101.605777,160.995494 100.932389,160.32493 100.932389,159.497747 C100.932389,158.670564 101.605777,158 102.436445,158 C103.267112,158 103.940501,158.670564 103.940501,159.497747 C103.940501,160.32493 103.267112,160.995494 102.436445,160.995494 Z M119.258509,160.995494 C118.427842,160.995494 117.754453,160.32493 117.754453,159.497747 C117.754453,158.670564 118.427842,158 119.258509,158 C120.089177,158 120.762566,158.670564 120.762566,159.497747 C120.762566,160.32493 120.089177,160.995494 119.258509,160.995494 Z M136.080574,160.995494 C135.249907,160.995494 134.576518,160.32493 134.576518,159.497747 C134.576518,158.670564 135.249907,158 136.080574,158 C136.911241,158 137.58463,158.670564 137.58463,159.497747 C137.58463,160.32493 136.911241,160.995494 136.080574,160.995494 Z M152.902639,160.995494 C152.071972,160.995494 151.398583,160.32493 151.398583,159.497747 C151.398583,158.670564 152.071972,158 152.902639,158 C153.733306,158 154.406695,158.670564 154.406695,159.497747 C154.406695,160.32493 153.733306,160.995494 152.902639,160.995494 Z M169.724704,160.995494 C168.894036,160.995494 168.220648,160.32493 168.220648,159.497747 C168.220648,158.670564 168.894036,158 169.724704,158 C170.555371,158 171.22876,158.670564 171.22876,159.497747 C171.22876,160.32493 170.555371,160.995494 169.724704,160.995494 Z M186.546768,160.995494 C185.716101,160.995494 185.042712,160.32493 185.042712,159.497747 C185.042712,158.670564 185.716101,158 186.546768,158 C187.377436,158 188.050825,158.670564 188.050825,159.497747 C188.050825,160.32493 187.377436,160.995494 186.546768,160.995494 Z M201.450528,228.001502 C200.61986,228.001502 199.946471,227.330938 199.946471,226.503755 C199.946471,225.676572 200.61986,225.006008 201.450528,225.006008 C202.281195,225.006008 202.954584,225.676572 202.954584,226.503755 C202.954584,227.330938 202.281195,228.001502 201.450528,228.001502 Z M218.272592,228.001502 C217.441925,228.001502 216.768536,227.330938 216.768536,226.503755 C216.768536,225.676572 217.441925,225.006008 218.272592,225.006008 C219.10326,225.006008 219.776648,225.676572 219.776648,226.503755 C219.776648,227.330938 219.10326,228.001502 218.272592,228.001502 Z M235.094657,228.001502 C234.26399,228.001502 233.590601,227.330938 233.590601,226.503755 C233.590601,225.676572 234.26399,225.006008 235.094657,225.006008 C235.925324,225.006008 236.598713,225.676572 236.598713,226.503755 C236.598713,227.330938 235.925324,228.001502 235.094657,228.001502 Z M251.916722,228.001502 C251.086055,228.001502 250.412666,227.330938 250.412666,226.503755 C250.412666,225.676572 251.086055,225.006008 251.916722,225.006008 C252.747389,225.006008 253.420778,225.676572 253.420778,226.503755 C253.420778,227.330938 252.747389,228.001502 251.916722,228.001502 Z M268.738787,228.001502 C267.908119,228.001502 267.23473,227.330938 267.23473,226.503755 C267.23473,225.676572 267.908119,225.006008 268.738787,225.006008 C269.569454,225.006008 270.242843,225.676572 270.242843,226.503755 C270.242843,227.330938 269.569454,228.001502 268.738787,228.001502 Z M285.560851,228.001502 C284.730184,228.001502 284.056795,227.330938 284.056795,226.503755 C284.056795,225.676572 284.730184,225.006008 285.560851,225.006008 C286.391519,225.006008 287.064907,225.676572 287.064907,226.503755 C287.064907,227.330938 286.391519,228.001502 285.560851,228.001502 Z M302.382916,228.001502 C301.552249,228.001502 300.87886,227.330938 300.87886,226.503755 C300.87886,225.676572 301.552249,225.006008 302.382916,225.006008 C303.213583,225.006008 303.886972,225.676572 303.886972,226.503755 C303.886972,227.330938 303.213583,228.001502 302.382916,228.001502 Z M319.204981,228.001502 C318.374314,228.001502 317.700925,227.330938 317.700925,226.503755 C317.700925,225.676572 318.374314,225.006008 319.204981,225.006008 C320.035648,225.006008 320.709037,225.676572 320.709037,226.503755 C320.709037,227.330938 320.035648,228.001502 319.204981,228.001502 Z M336.027046,228.001502 C335.196378,228.001502 334.522989,227.330938 334.522989,226.503755 C334.522989,225.676572 335.196378,225.006008 336.027046,225.006008 C336.857713,225.006008 337.531102,225.676572 337.531102,226.503755 C337.531102,227.330938 336.857713,228.001502 336.027046,228.001502 Z M352.84911,228.001502 C352.018443,228.001502 351.345054,227.330938 351.345054,226.503755 C351.345054,225.676572 352.018443,225.006008 352.84911,225.006008 C353.679778,225.006008 354.353166,225.676572 354.353166,226.503755 C354.353166,227.330938 353.679778,228.001502 352.84911,228.001502 Z M369.671175,228.001502 C368.840508,228.001502 368.167119,227.330938 368.167119,226.503755 C368.167119,225.676572 368.840508,225.006008 369.671175,225.006008 C370.501842,225.006008 371.175231,225.676572 371.175231,226.503755 C371.175231,227.330938 370.501842,228.001502 369.671175,228.001502 Z M386.49324,228.001502 C385.662573,228.001502 384.989184,227.330938 384.989184,226.503755 C384.989184,225.676572 385.662573,225.006008 386.49324,225.006008 C387.323907,225.006008 387.997296,225.676572 387.997296,226.503755 C387.997296,227.330938 387.323907,228.001502 386.49324,228.001502 Z M201.450528,211.25 C200.61986,211.25 199.946471,210.579436 199.946471,209.752253 C199.946471,208.92507 200.61986,208.254506 201.450528,208.254506 C202.281195,208.254506 202.954584,208.92507 202.954584,209.752253 C202.954584,210.579436 202.281195,211.25 201.450528,211.25 Z M218.272592,211.25 C217.441925,211.25 216.768536,210.579436 216.768536,209.752253 C216.768536,208.92507 217.441925,208.254506 218.272592,208.254506 C219.10326,208.254506 219.776648,208.92507 219.776648,209.752253 C219.776648,210.579436 219.10326,211.25 218.272592,211.25 Z M235.094657,211.25 C234.26399,211.25 233.590601,210.579436 233.590601,209.752253 C233.590601,208.92507 234.26399,208.254506 235.094657,208.254506 C235.925324,208.254506 236.598713,208.92507 236.598713,209.752253 C236.598713,210.579436 235.925324,211.25 235.094657,211.25 Z M251.916722,211.25 C251.086055,211.25 250.412666,210.579436 250.412666,209.752253 C250.412666,208.92507 251.086055,208.254506 251.916722,208.254506 C252.747389,208.254506 253.420778,208.92507 253.420778,209.752253 C253.420778,210.579436 252.747389,211.25 251.916722,211.25 Z M268.738787,211.25 C267.908119,211.25 267.23473,210.579436 267.23473,209.752253 C267.23473,208.92507 267.908119,208.254506 268.738787,208.254506 C269.569454,208.254506 270.242843,208.92507 270.242843,209.752253 C270.242843,210.579436 269.569454,211.25 268.738787,211.25 Z M285.560851,211.25 C284.730184,211.25 284.056795,210.579436 284.056795,209.752253 C284.056795,208.92507 284.730184,208.254506 285.560851,208.254506 C286.391519,208.254506 287.064907,208.92507 287.064907,209.752253 C287.064907,210.579436 286.391519,211.25 285.560851,211.25 Z M302.382916,211.25 C301.552249,211.25 300.87886,210.579436 300.87886,209.752253 C300.87886,208.92507 301.552249,208.254506 302.382916,208.254506 C303.213583,208.254506 303.886972,208.92507 303.886972,209.752253 C303.886972,210.579436 303.213583,211.25 302.382916,211.25 Z M319.204981,211.25 C318.374314,211.25 317.700925,210.579436 317.700925,209.752253 C317.700925,208.92507 318.374314,208.254506 319.204981,208.254506 C320.035648,208.254506 320.709037,208.92507 320.709037,209.752253 C320.709037,210.579436 320.035648,211.25 319.204981,211.25 Z M336.027046,211.25 C335.196378,211.25 334.522989,210.579436 334.522989,209.752253 C334.522989,208.92507 335.196378,208.254506 336.027046,208.254506 C336.857713,208.254506 337.531102,208.92507 337.531102,209.752253 C337.531102,210.579436 336.857713,211.25 336.027046,211.25 Z M352.84911,211.25 C352.018443,211.25 351.345054,210.579436 351.345054,209.752253 C351.345054,208.92507 352.018443,208.254506 352.84911,208.254506 C353.679778,208.254506 354.353166,208.92507 354.353166,209.752253 C354.353166,210.579436 353.679778,211.25 352.84911,211.25 Z M369.671175,211.25 C368.840508,211.25 368.167119,210.579436 368.167119,209.752253 C368.167119,208.92507 368.840508,208.254506 369.671175,208.254506 C370.501842,208.254506 371.175231,208.92507 371.175231,209.752253 C371.175231,210.579436 370.501842,211.25 369.671175,211.25 Z M386.49324,211.25 C385.662573,211.25 384.989184,210.579436 384.989184,209.752253 C384.989184,208.92507 385.662573,208.254506 386.49324,208.254506 C387.323907,208.254506 387.997296,208.92507 387.997296,209.752253 C387.997296,210.579436 387.323907,211.25 386.49324,211.25 Z M201.450528,194.498498 C200.61986,194.498498 199.946471,193.827934 199.946471,193.000751 C199.946471,192.173568 200.61986,191.503004 201.450528,191.503004 C202.281195,191.503004 202.954584,192.173568 202.954584,193.000751 C202.954584,193.827934 202.281195,194.498498 201.450528,194.498498 Z M218.272592,194.498498 C217.441925,194.498498 216.768536,193.827934 216.768536,193.000751 C216.768536,192.173568 217.441925,191.503004 218.272592,191.503004 C219.10326,191.503004 219.776648,192.173568 219.776648,193.000751 C219.776648,193.827934 219.10326,194.498498 218.272592,194.498498 Z M235.094657,194.498498 C234.26399,194.498498 233.590601,193.827934 233.590601,193.000751 C233.590601,192.173568 234.26399,191.503004 235.094657,191.503004 C235.925324,191.503004 236.598713,192.173568 236.598713,193.000751 C236.598713,193.827934 235.925324,194.498498 235.094657,194.498498 Z M251.916722,194.498498 C251.086055,194.498498 250.412666,193.827934 250.412666,193.000751 C250.412666,192.173568 251.086055,191.503004 251.916722,191.503004 C252.747389,191.503004 253.420778,192.173568 253.420778,193.000751 C253.420778,193.827934 252.747389,194.498498 251.916722,194.498498 Z M268.738787,194.498498 C267.908119,194.498498 267.23473,193.827934 267.23473,193.000751 C267.23473,192.173568 267.908119,191.503004 268.738787,191.503004 C269.569454,191.503004 270.242843,192.173568 270.242843,193.000751 C270.242843,193.827934 269.569454,194.498498 268.738787,194.498498 Z M285.560851,194.498498 C284.730184,194.498498 284.056795,193.827934 284.056795,193.000751 C284.056795,192.173568 284.730184,191.503004 285.560851,191.503004 C286.391519,191.503004 287.064907,192.173568 287.064907,193.000751 C287.064907,193.827934 286.391519,194.498498 285.560851,194.498498 Z M302.382916,194.498498 C301.552249,194.498498 300.87886,193.827934 300.87886,193.000751 C300.87886,192.173568 301.552249,191.503004 302.382916,191.503004 C303.213583,191.503004 303.886972,192.173568 303.886972,193.000751 C303.886972,193.827934 303.213583,194.498498 302.382916,194.498498 Z M319.204981,194.498498 C318.374314,194.498498 317.700925,193.827934 317.700925,193.000751 C317.700925,192.173568 318.374314,191.503004 319.204981,191.503004 C320.035648,191.503004 320.709037,192.173568 320.709037,193.000751 C320.709037,193.827934 320.035648,194.498498 319.204981,194.498498 Z M336.027046,194.498498 C335.196378,194.498498 334.522989,193.827934 334.522989,193.000751 C334.522989,192.173568 335.196378,191.503004 336.027046,191.503004 C336.857713,191.503004 337.531102,192.173568 337.531102,193.000751 C337.531102,193.827934 336.857713,194.498498 336.027046,194.498498 Z M352.84911,194.498498 C352.018443,194.498498 351.345054,193.827934 351.345054,193.000751 C351.345054,192.173568 352.018443,191.503004 352.84911,191.503004 C353.679778,191.503004 354.353166,192.173568 354.353166,193.000751 C354.353166,193.827934 353.679778,194.498498 352.84911,194.498498 Z M369.671175,194.498498 C368.840508,194.498498 368.167119,193.827934 368.167119,193.000751 C368.167119,192.173568 368.840508,191.503004 369.671175,191.503004 C370.501842,191.503004 371.175231,192.173568 371.175231,193.000751 C371.175231,193.827934 370.501842,194.498498 369.671175,194.498498 Z M386.49324,194.498498 C385.662573,194.498498 384.989184,193.827934 384.989184,193.000751 C384.989184,192.173568 385.662573,191.503004 386.49324,191.503004 C387.323907,191.503004 387.997296,192.173568 387.997296,193.000751 C387.997296,193.827934 387.323907,194.498498 386.49324,194.498498 Z M201.450528,177.746996 C200.61986,177.746996 199.946471,177.076432 199.946471,176.249249 C199.946471,175.422066 200.61986,174.751502 201.450528,174.751502 C202.281195,174.751502 202.954584,175.422066 202.954584,176.249249 C202.954584,177.076432 202.281195,177.746996 201.450528,177.746996 Z M218.272592,177.746996 C217.441925,177.746996 216.768536,177.076432 216.768536,176.249249 C216.768536,175.422066 217.441925,174.751502 218.272592,174.751502 C219.10326,174.751502 219.776648,175.422066 219.776648,176.249249 C219.776648,177.076432 219.10326,177.746996 218.272592,177.746996 Z M235.094657,177.746996 C234.26399,177.746996 233.590601,177.076432 233.590601,176.249249 C233.590601,175.422066 234.26399,174.751502 235.094657,174.751502 C235.925324,174.751502 236.598713,175.422066 236.598713,176.249249 C236.598713,177.076432 235.925324,177.746996 235.094657,177.746996 Z M251.916722,177.746996 C251.086055,177.746996 250.412666,177.076432 250.412666,176.249249 C250.412666,175.422066 251.086055,174.751502 251.916722,174.751502 C252.747389,174.751502 253.420778,175.422066 253.420778,176.249249 C253.420778,177.076432 252.747389,177.746996 251.916722,177.746996 Z M268.738787,177.746996 C267.908119,177.746996 267.23473,177.076432 267.23473,176.249249 C267.23473,175.422066 267.908119,174.751502 268.738787,174.751502 C269.569454,174.751502 270.242843,175.422066 270.242843,176.249249 C270.242843,177.076432 269.569454,177.746996 268.738787,177.746996 Z M285.560851,177.746996 C284.730184,177.746996 284.056795,177.076432 284.056795,176.249249 C284.056795,175.422066 284.730184,174.751502 285.560851,174.751502 C286.391519,174.751502 287.064907,175.422066 287.064907,176.249249 C287.064907,177.076432 286.391519,177.746996 285.560851,177.746996 Z M302.382916,177.746996 C301.552249,177.746996 300.87886,177.076432 300.87886,176.249249 C300.87886,175.422066 301.552249,174.751502 302.382916,174.751502 C303.213583,174.751502 303.886972,175.422066 303.886972,176.249249 C303.886972,177.076432 303.213583,177.746996 302.382916,177.746996 Z M319.204981,177.746996 C318.374314,177.746996 317.700925,177.076432 317.700925,176.249249 C317.700925,175.422066 318.374314,174.751502 319.204981,174.751502 C320.035648,174.751502 320.709037,175.422066 320.709037,176.249249 C320.709037,177.076432 320.035648,177.746996 319.204981,177.746996 Z M336.027046,177.746996 C335.196378,177.746996 334.522989,177.076432 334.522989,176.249249 C334.522989,175.422066 335.196378,174.751502 336.027046,174.751502 C336.857713,174.751502 337.531102,175.422066 337.531102,176.249249 C337.531102,177.076432 336.857713,177.746996 336.027046,177.746996 Z M352.84911,177.746996 C352.018443,177.746996 351.345054,177.076432 351.345054,176.249249 C351.345054,175.422066 352.018443,174.751502 352.84911,174.751502 C353.679778,174.751502 354.353166,175.422066 354.353166,176.249249 C354.353166,177.076432 353.679778,177.746996 352.84911,177.746996 Z M369.671175,177.746996 C368.840508,177.746996 368.167119,177.076432 368.167119,176.249249 C368.167119,175.422066 368.840508,174.751502 369.671175,174.751502 C370.501842,174.751502 371.175231,175.422066 371.175231,176.249249 C371.175231,177.076432 370.501842,177.746996 369.671175,177.746996 Z M386.49324,177.746996 C385.662573,177.746996 384.989184,177.076432 384.989184,176.249249 C384.989184,175.422066 385.662573,174.751502 386.49324,174.751502 C387.323907,174.751502 387.997296,175.422066 387.997296,176.249249 C387.997296,177.076432 387.323907,177.746996 386.49324,177.746996 Z M201.450528,160.995494 C200.61986,160.995494 199.946471,160.32493 199.946471,159.497747 C199.946471,158.670564 200.61986,158 201.450528,158 C202.281195,158 202.954584,158.670564 202.954584,159.497747 C202.954584,160.32493 202.281195,160.995494 201.450528,160.995494 Z M218.272592,160.995494 C217.441925,160.995494 216.768536,160.32493 216.768536,159.497747 C216.768536,158.670564 217.441925,158 218.272592,158 C219.10326,158 219.776648,158.670564 219.776648,159.497747 C219.776648,160.32493 219.10326,160.995494 218.272592,160.995494 Z M235.094657,160.995494 C234.26399,160.995494 233.590601,160.32493 233.590601,159.497747 C233.590601,158.670564 234.26399,158 235.094657,158 C235.925324,158 236.598713,158.670564 236.598713,159.497747 C236.598713,160.32493 235.925324,160.995494 235.094657,160.995494 Z M251.916722,160.995494 C251.086055,160.995494 250.412666,160.32493 250.412666,159.497747 C250.412666,158.670564 251.086055,158 251.916722,158 C252.747389,158 253.420778,158.670564 253.420778,159.497747 C253.420778,160.32493 252.747389,160.995494 251.916722,160.995494 Z M268.738787,160.995494 C267.908119,160.995494 267.23473,160.32493 267.23473,159.497747 C267.23473,158.670564 267.908119,158 268.738787,158 C269.569454,158 270.242843,158.670564 270.242843,159.497747 C270.242843,160.32493 269.569454,160.995494 268.738787,160.995494 Z M285.560851,160.995494 C284.730184,160.995494 284.056795,160.32493 284.056795,159.497747 C284.056795,158.670564 284.730184,158 285.560851,158 C286.391519,158 287.064907,158.670564 287.064907,159.497747 C287.064907,160.32493 286.391519,160.995494 285.560851,160.995494 Z M302.382916,160.995494 C301.552249,160.995494 300.87886,160.32493 300.87886,159.497747 C300.87886,158.670564 301.552249,158 302.382916,158 C303.213583,158 303.886972,158.670564 303.886972,159.497747 C303.886972,160.32493 303.213583,160.995494 302.382916,160.995494 Z M319.204981,160.995494 C318.374314,160.995494 317.700925,160.32493 317.700925,159.497747 C317.700925,158.670564 318.374314,158 319.204981,158 C320.035648,158 320.709037,158.670564 320.709037,159.497747 C320.709037,160.32493 320.035648,160.995494 319.204981,160.995494 Z M336.027046,160.995494 C335.196378,160.995494 334.522989,160.32493 334.522989,159.497747 C334.522989,158.670564 335.196378,158 336.027046,158 C336.857713,158 337.531102,158.670564 337.531102,159.497747 C337.531102,160.32493 336.857713,160.995494 336.027046,160.995494 Z M352.84911,160.995494 C352.018443,160.995494 351.345054,160.32493 351.345054,159.497747 C351.345054,158.670564 352.018443,158 352.84911,158 C353.679778,158 354.353166,158.670564 354.353166,159.497747 C354.353166,160.32493 353.679778,160.995494 352.84911,160.995494 Z M369.671175,160.995494 C368.840508,160.995494 368.167119,160.32493 368.167119,159.497747 C368.167119,158.670564 368.840508,158 369.671175,158 C370.501842,158 371.175231,158.670564 371.175231,159.497747 C371.175231,160.32493 370.501842,160.995494 369.671175,160.995494 Z M386.49324,160.995494 C385.662573,160.995494 384.989184,160.32493 384.989184,159.497747 C384.989184,158.670564 385.662573,158 386.49324,158 C387.323907,158 387.997296,158.670564 387.997296,159.497747 C387.997296,160.32493 387.323907,160.995494 386.49324,160.995494 Z" id="points1"></path>
            </g>
        </g>
    </g>
</svg>